<svg xmlns="http://www.w3.org/2000/svg" version="1.0" width="602.000000pt" height="261.000000pt"
  viewBox="0 0 602.000000 261.000000" preserveAspectRatio="xMidYMid meet">

  <g transform="translate(0.000000,261.000000) scale(0.100000,-0.100000)"
    fill="var(--jp-ui-font-color1, var(--jp-inverse-layout-color3))" stroke="none">
    <path
      d="M1520 2384 c-69 -7 -228 -44 -298 -70 -148 -56 -303 -155 -402 -258 l-44 -46 -294 0 c-183 0 -301 -4 -313 -10 -16 -9 -19 -22 -19 -95 0 -130 -9 -125 260 -125 121 0 220 -2 220 -4 0 -2 -18 -50 -41 -106 -52 -131 -71 -233 -71 -395 -1 -141 16 -256 56 -371 90 -265 310 -518 557 -640 181 -90 305 -119 499 -118 183 0 320 32 481 110 215 105 408 304 519 535 121 255 132 632 25 867 -35 76 -33 85 23 110 160 71 330 88 485 47 90 -23 187 -68 187 -86 0 -8 -11 -43 -24 -77 -49 -125 -61 -203 -61 -397 1 -241 21 -331 118 -518 147 -283 402 -482 733 -568 126 -33 357 -34 489 -1 323 79 579 280 746 584 90 163 124 309 123 528 -1 182 -31 325 -95 452 -11 21 -19 40 -19 43 0 3 96 5 214 5 201 0 215 1 240 21 24 19 26 26 26 98 0 118 20 111 -329 111 l-292 0 -67 63 c-115 108 -277 207 -421 256 -79 27 -274 61 -351 61 -80 0 -276 -35 -366 -65 -98 -33 -170 -70 -280 -143 -85 -58 -234 -198 -234 -221 0 -17 -17 -13 -93 23 -93 45 -188 71 -319 87 -93 11 -122 11 -225 -4 -138 -20 -264 -56 -317 -92 -46 -31 -50 -31 -71 1 -25 38 -127 136 -195 187 -70 53 -231 137 -316 166 -130 44 -316 67 -444 55z m283 -259 c88 -20 237 -84 302 -130 139 -95 253 -237 318 -395 81 -196 84 -458 7 -658 -97 -252 -321 -458 -575 -528 -79 -22 -297 -30 -378 -15 -275 52 -503 224 -627 471 -73 147 -92 232 -91 415 0 147 18 233 77 370 105 244 377 440 679 489 54 8 219 -2 288 -19z m2777 -2 c77 -18 209 -78 275 -123 121 -83 251 -233 304 -351 79 -175 99 -387 54 -579 -35 -155 -88 -255 -202 -388 -106 -122 -247 -216 -396 -262 -99 -31 -319 -39 -433 -16 -79 16 -212 67 -269 102 -119 75 -222 184 -301 319 -122 207 -145 466 -66 730 37 124 94 217 193 316 153 153 325 243 511 269 84 11 247 3 330 -17z" />
  </g>
</svg>