<?xml version="1.0" standalone="no"?>
<!DOCTYPE svg PUBLIC "-//W3C//DTD SVG 20010904//EN" "http://www.w3.org/TR/2001/REC-SVG-20010904/DTD/svg10.dtd">
<svg version="1.0" xmlns="http://www.w3.org/2000/svg" width="1034.000000pt" height="243.000000pt"
   viewBox="0 0 1034.000000 243.000000" preserveAspectRatio="xMidYMid meet">
   <style xmlns="http://www.w3.org/2000/svg" type="text/css">
      .st0 {
         fill: var(--jp-text-editor-icon-color, var(--jp-inverse-layout-color3));
      }
   </style>
   <g transform="translate(0.000000,243.000000) scale(0.100000,-0.100000)" class="st0" stroke="none">
      <path fill="#0072b5" d="M135 2415 c-51 -18 -110 -81 -124 -131 -15 -54 -15 -2084 0 -2137 12
-44 59 -101 103 -125 28 -16 115 -17 1066 -20 756 -2 1049 0 1089 8 72 16 126
65 146 133 22 75 23 2068 0 2143 -14 50 -55 98 -105 125 -38 21 -2117 25
-2175 4z m767 -478 c20 -12 46 -34 58 -49 l21 -28 537 -2 537 -3 0 -85 0 -85
-537 -3 -537 -2 -21 -30 c-31 -43 -95 -74 -155 -74 -58 0 -131 36 -159 79 -16
25 -18 25 -147 25 l-130 0 3 88 3 87 128 3 128 3 32 36 c40 46 78 62 147 63
40 0 65 -6 92 -23z m781 -557 c19 -13 43 -36 53 -52 l19 -28 153 0 152 0 0
-85 0 -85 -152 0 -153 0 -19 -28 c-70 -105 -235 -108 -312 -6 l-26 34 -514 0
-514 0 0 85 0 85 514 0 514 0 25 34 c59 77 183 99 260 46z m-783 -550 c21 -11
48 -33 60 -50 l21 -30 537 -2 537 -3 0 -85 0 -85 -537 -3 -537 -2 -19 -24
c-38 -49 -91 -76 -149 -76 -68 0 -110 18 -150 63 l-32 36 -128 3 -128 3 -3 88
-3 87 130 0 c128 0 131 0 147 25 18 27 69 62 112 75 37 12 96 4 142 -20z" />
      <path fill="#0072b5" d="M2828 2420 c-48 -14 -96 -50 -120 -88 l-23 -37 0 -1080 0 -1080 23
-38 c13 -20 45 -50 70 -65 l47 -27 1065 0 1065 0 42 23 c24 12 55 41 70 64
l28 42 0 1081 0 1081 -28 42 c-15 23 -46 52 -70 64 l-42 23 -1050 2 c-577 1
-1062 -2 -1077 -7z m1094 -234 c22 -17 38 -59 38 -101 0 -24 6 -38 20 -45 37
-20 49 -55 72 -217 12 -90 25 -163 29 -163 4 0 15 23 25 50 10 28 27 60 37 71
26 27 74 22 98 -11 34 -46 88 -289 101 -452 l12 -148 18 34 c20 40 63 76 89
76 10 0 31 -16 46 -35 34 -43 52 -44 78 -2 11 18 37 41 57 52 30 16 40 17 63
7 36 -16 79 -114 111 -250 13 -59 34 -143 45 -187 32 -120 34 -157 12 -177
-75 -66 -113 -12 -171 242 -17 76 -20 82 -27 55 -14 -54 -33 -75 -69 -75 -40
0 -60 21 -75 76 -7 27 -19 44 -36 52 -26 12 -29 7 -50 -96 -9 -46 -30 -62 -78
-62 -53 0 -104 31 -121 73 -8 17 -17 75 -20 127 -13 175 -36 395 -44 425 -9
29 -9 28 -21 -25 -24 -111 -30 -126 -57 -139 -34 -15 -110 17 -123 52 -5 14
-19 91 -31 173 -12 82 -27 151 -33 153 -6 2 -21 14 -33 26 l-21 21 -12 -80
c-7 -53 -18 -87 -30 -100 -21 -23 -36 -91 -72 -336 -23 -159 -34 -188 -79
-220 -27 -19 -30 -27 -30 -73 0 -94 -21 -332 -32 -360 -15 -39 -35 -57 -62
-57 -18 0 -25 -9 -35 -41 -15 -49 -43 -79 -74 -79 -19 0 -26 -8 -35 -38 -15
-50 -53 -91 -91 -98 -16 -4 -40 -17 -52 -30 -35 -37 -80 -30 -103 15 -7 14
-19 49 -26 78 -11 48 -15 53 -45 59 -19 3 -39 3 -45 -1 -6 -4 -24 -2 -40 5
-35 14 -46 44 -90 240 -35 153 -38 186 -21 218 15 28 70 30 95 3 10 -11 32
-78 50 -151 l32 -132 39 -19 c22 -10 50 -18 63 -19 41 0 61 -19 73 -65 20 -81
37 -59 83 107 17 60 43 88 82 88 16 0 25 11 38 45 10 25 25 49 34 54 13 7 18
43 29 187 7 99 18 191 24 205 10 26 53 54 69 44 4 -3 11 21 15 53 19 161 56
348 76 381 12 21 29 82 40 150 14 82 25 121 40 137 14 15 24 50 35 120 13 82
20 103 40 122 28 25 51 27 76 8z" />
      <path d="M9985 2016 l-130 -21 -3 -600 c-1 -348 2 -638 8 -689 16 -154 70
-228 196 -275 54 -21 225 -44 235 -33 6 7 51 244 46 247 -1 1 -29 10 -61 21
-109 35 -101 -25 -104 725 l-2 649 -28 -1 c-15 -1 -85 -11 -157 -23z" />
      <path d="M5815 1883 c-98 -6 -248 -25 -271 -33 l-24 -10 2 -712 3 -713 163 -3
162 -2 0 245 0 245 80 0 c256 0 462 55 577 155 123 105 165 356 93 548 -77
205 -361 307 -785 280z m278 -283 c116 -17 175 -60 198 -143 14 -54 3 -138
-24 -178 -43 -64 -163 -99 -337 -99 l-80 0 0 209 0 210 28 4 c52 8 148 7 215
-3z" />
      <path d="M6895 1536 c-141 -20 -195 -35 -194 -54 0 -10 8 -64 17 -122 16 -93
20 -105 37 -104 11 1 65 9 120 18 245 39 348 0 371 -141 l6 -42 -128 6 c-209
9 -339 -25 -433 -112 -68 -64 -92 -123 -92 -231 0 -107 19 -168 73 -228 49
-57 103 -89 188 -112 98 -27 391 -23 560 8 l125 23 0 380 c0 332 -2 388 -18
445 -35 128 -116 210 -247 251 -84 26 -262 33 -385 15z m324 -652 l31 -6 0
-118 0 -118 -75 -7 c-42 -4 -99 -4 -128 0 -98 14 -137 49 -137 125 0 67 31
103 105 121 38 9 163 11 204 3z" />
      <path d="M9133 1536 c-189 -44 -343 -202 -394 -406 -18 -70 -18 -268 0 -340
43 -178 155 -303 329 -368 121 -45 392 -41 562 8 66 19 65 15 43 151 -15 96
-23 123 -34 120 -121 -34 -176 -42 -274 -43 -90 -1 -120 3 -165 21 -66 25
-126 82 -145 137 l-13 39 354 3 354 2 6 26 c11 42 -4 243 -21 308 -45 166
-156 283 -312 331 -71 22 -216 27 -290 11z m235 -278 c41 -27 75 -85 86 -145
l6 -33 -209 0 -209 0 10 38 c34 122 100 174 214 169 47 -2 71 -9 102 -29z" />
      <path d="M7950 1533 c-14 -2 -65 -11 -115 -19 -49 -8 -105 -19 -123 -25 l-32
-11 2 -531 3 -532 155 0 155 0 3 426 2 427 75 7 c122 11 181 -10 217 -78 22
-41 23 -52 28 -412 l5 -370 155 0 155 0 0 365 c0 394 -5 449 -53 549 -47 101
-145 173 -270 200 -49 10 -306 13 -362 4z" />
   </g>
</svg>