<svg xmlns="http://www.w3.org/2000/svg" viewBox="0 0 1000 300">
  <path
    d="M 402.755 254.982 L 356.709 129.494 L 390.611 129.494 L 422.489 224.369 L 454.367 129.494 L 488.269 129.494 L 441.97 254.982 L 402.755 254.982 Z"
    fill="var(--jp-ui-font-color1, var(--jp-inverse-layout-color3))" />
  <path
    d="M 523.622 110.013 C 517.718 110.013 512.827 108.242 508.948 104.7 C 505.237 101.158 503.382 96.688 503.382 91.291 C 503.382 85.894 505.237 81.508 508.948 78.135 C 512.827 74.593 517.718 72.822 523.622 72.822 C 529.525 72.822 534.332 74.593 538.043 78.135 C 541.922 81.508 543.862 85.894 543.862 91.291 C 543.862 96.688 541.922 101.158 538.043 104.7 C 534.332 108.242 529.525 110.013 523.622 110.013 Z M 507.43 254.982 L 507.43 129.494 L 539.814 129.494 L 539.814 254.982 L 507.43 254.982 Z"
    fill="var(--jp-ui-font-color1, var(--jp-inverse-layout-color3))" />
  <path
    d="M 562.989 254.982 L 562.989 228.923 L 626.998 156.312 L 563.748 156.312 L 563.748 129.494 L 663.936 129.494 L 663.936 155.553 L 598.915 228.164 L 665.201 228.164 L 665.201 254.982 L 562.989 254.982 Z"
    fill="var(--jp-ui-font-color1, var(--jp-inverse-layout-color3))" />
  <path
    d="M 689.619 254.982 L 689.619 129.494 L 718.461 129.494 L 721.497 153.023 C 726.051 144.927 732.208 138.518 739.966 133.795 C 747.894 128.904 757.17 126.458 767.796 126.458 L 767.796 160.613 L 758.688 160.613 C 751.604 160.613 745.279 161.709 739.713 163.902 C 734.147 166.095 729.762 169.89 726.557 175.287 C 723.521 180.684 722.003 188.19 722.003 197.804 L 722.003 254.982 L 689.619 254.982 Z"
    fill="var(--jp-ui-font-color1, var(--jp-inverse-layout-color3))" />
  <path
    d="M 840.33 258.018 C 828.186 258.018 817.223 255.235 807.44 249.669 C 797.826 244.103 790.152 236.429 784.417 226.646 C 778.851 216.695 776.068 205.225 776.068 192.238 C 776.068 179.251 778.935 167.866 784.67 158.083 C 790.405 148.132 798.079 140.373 807.693 134.807 C 817.476 129.241 828.439 126.458 840.583 126.458 C 852.558 126.458 863.353 129.241 872.967 134.807 C 882.75 140.373 890.424 148.132 895.99 158.083 C 901.725 167.866 904.592 179.251 904.592 192.238 C 904.592 205.225 901.725 216.695 895.99 226.646 C 890.424 236.429 882.75 244.103 872.967 249.669 C 863.184 255.235 852.305 258.018 840.33 258.018 Z M 840.33 229.935 C 848.763 229.935 856.101 226.815 862.341 220.574 C 868.582 214.165 871.702 204.719 871.702 192.238 C 871.702 179.757 868.582 170.396 862.341 164.155 C 856.101 157.746 848.848 154.541 840.583 154.541 C 831.981 154.541 824.56 157.746 818.319 164.155 C 812.247 170.396 809.211 179.757 809.211 192.238 C 809.211 204.719 812.247 214.165 818.319 220.574 C 824.56 226.815 831.897 229.935 840.33 229.935 Z"
    fill="var(--jp-ui-font-color1, var(--jp-inverse-layout-color3))" />
  <path d="M 308.408 41.982 L 308.408 254.982 L 95.408 254.982 L 308.408 41.982 Z" fill="#2251FF" />
</svg>